{"asset":{"version":"2.0","generator":"THREE.GLTFExporter"},"scenes":[{"name":"AuxScene","nodes":[10]}],"scene":0,"nodes":[{"matrix":[50,0,0,0,0,50,0,0,0,0,50,0,-300,-250,-65.00000115483999,1],"mesh":0},{"matrix":[50,0,0,0,0,50,0,0,0,0,50,0,-300,-250,-65.00000115483999,1],"mesh":1},{"matrix":[50,0,0,0,0,50,0,0,0,0,50,0,-300,-250,-65.00000115483999,1],"mesh":2},{"matrix":[50,0,0,0,0,50,0,0,0,0,50,0,-300,-250,-65.00000115483999,1],"mesh":3},{"matrix":[50,0,0,0,0,50,0,0,0,0,50,0,-300,-250,-65.00000115483999,1],"mesh":4},{"matrix":[50,0,0,0,0,50,0,0,0,0,50,0,-300,-250,-65.00000115483999,1],"mesh":5},{"matrix":[50,0,0,0,0,50,0,0,0,0,50,0,-300,-250,-65.00000115483999,1],"mesh":6},{"matrix":[1,0,0,0,0,1,0,0,0,0,1,0,-197,43,-18,1],"mesh":7},{"matrix":[50,0,0,0,0,50,0,0,0,0,50,0,-300,-250,-65.00000115483999,1],"mesh":8},{"children":[0,1,2,3,4,5,6,7,8]},{"children":[9]}],"bufferViews":[{"buffer":0,"byteOffset":0,"byteLength":2592,"target":34962,"byteStride":12},{"buffer":0,"byteOffset":2592,"byteLength":2592,"target":34962,"byteStride":12},{"buffer":0,"byteOffset":5184,"byteLength":4032,"target":34962,"byteStride":12},{"buffer":0,"byteOffset":9216,"byteLength":4032,"target":34962,"byteStride":12},{"buffer":0,"byteOffset":13248,"byteLength":432,"target":34962,"byteStride":12},{"buffer":0,"byteOffset":13680,"byteLength":432,"target":34962,"byteStride":12},{"buffer":0,"byteOffset":14112,"byteLength":2592,"target":34962,"byteStride":12},{"buffer":0,"byteOffset":16704,"byteLength":2592,"target":34962,"byteStride":12},{"buffer":0,"byteOffset":19296,"byteLength":4032,"target":34962,"byteStride":12},{"buffer":0,"byteOffset":23328,"byteLength":4032,"target":34962,"byteStride":12},{"buffer":0,"byteOffset":27360,"byteLength":277920,"target":34962,"byteStride":12},{"buffer":0,"byteOffset":305280,"byteLength":277920,"target":34962,"byteStride":12},{"buffer":0,"byteOffset":583200,"byteLength":1584,"target":34962,"byteStride":12},{"buffer":0,"byteOffset":584784,"byteLength":1584,"target":34962,"byteStride":12},{"buffer":0,"byteOffset":586368,"byteLength":288,"target":34962,"byteStride":12},{"buffer":0,"byteOffset":586656,"byteLength":288,"target":34962,"byteStride":12},{"buffer":0,"byteOffset":586944,"byteLength":192,"target":34962,"byteStride":8},{"buffer":0,"byteOffset":587136,"byteLength":72,"target":34963},{"buffer":0,"byteOffset":587208,"byteLength":1440,"target":34962,"byteStride":12},{"buffer":0,"byteOffset":588648,"byteLength":1440,"target":34962,"byteStride":12}],"buffers":[{"byteLength":590088,"uri":"data:application/octet-stream;base64,"}],"accessors":[{"bufferView":0,"componentType":5126,"count":216,"max":[0.30000001192092896,10,2.700000047683716],"min":[-1.7347199604592037e-18,0,-0.10000000149011612],"type":"VEC3"},{"bufferView":1,"componentType":5126,"count":216,"max":[1,1,1],"min":[-1,-1,-1],"type":"VEC3"},{"bufferView":2,"componentType":5126,"count":336,"max":[0.19499999284744263,8.494999885559082,1.899999976158142],"min":[0.11999999731779099,6.494999885559082,0.699999988079071],"type":"VEC3"},{"bufferView":3,"componentType":5126,"count":336,"max":[1,1,1],"min":[-1,-1,-1],"type":"VEC3"},{"bufferView":4,"componentType":5126,"count":36,"max":[4.039999961853027,9.699999809265137,2.700000047683716],"min":[3.799999952316284,5.989999771118164,-0.10000000149011612],"type":"VEC3"},{"bufferView":5,"componentType":5126,"count":36,"max":[1,1,1],"min":[-1,-1,-1],"type":"VEC3"},{"bufferView":6,"componentType":5126,"count":216,"max":[12,10,2.700000047683716],"min":[0,9.699999809265137,-0.10000000149011612],"type":"VEC3"},{"bufferView":7,"componentType":5126,"count":216,"max":[1,1,1],"min":[-1,-1,-1],"type":"VEC3"},{"bufferView":8,"componentType":5126,"count":336,"max":[3.049999952316284,9.880000114440918,1.899999976158142],"min":[1.0499999523162842,9.805000305175781,0.699999988079071],"type":"VEC3"},{"bufferView":9,"componentType":5126,"count":336,"max":[1,1,1],"min":[-1,-1,-1],"type":"VEC3"},{"bufferView":10,"componentType":5126,"count":23160,"max":[2.9096899032592773,9.531800270080566,0.7599999904632568],"min":[1.1796900033950806,8.721799850463867,1.4901200273698123e-9],"type":"VEC3"},{"bufferView":11,"componentType":5126,"count":23160,"max":[1,1,1],"min":[-1,-1,-1],"type":"VEC3"},{"bufferView":12,"componentType":5126,"count":132,"max":[7.409999847412109,5.989999771118164,2.700000047683716],"min":[0.30000001192092896,5.75,-0.10000000149011612],"type":"VEC3"},{"bufferView":13,"componentType":5126,"count":132,"max":[1,1,1],"min":[-1,-1,-1],"type":"VEC3"},{"bufferView":14,"componentType":5126,"count":24,"max":[22.5,5,52],"min":[-22.5,-5,-52],"type":"VEC3"},{"bufferView":15,"componentType":5126,"count":24,"max":[1,1,1],"min":[-1,-1,-1],"type":"VEC3"},{"bufferView":16,"componentType":5126,"count":24,"max":[1,1],"min":[0,0],"type":"VEC2"},{"bufferView":17,"componentType":5123,"count":36,"max":[23],"min":[0],"type":"SCALAR"},{"bufferView":18,"componentType":5126,"count":120,"max":[2.493000030517578,6.761750221252441,2.009999990463257],"min":[1.6080000400543213,5.730000019073486,1.4901200273698123e-9],"type":"VEC3"},{"bufferView":19,"componentType":5126,"count":120,"max":[1,1,1],"min":[-1,-1,-1],"type":"VEC3"}],"materials":[{"pbrMetallicRoughness":{"baseColorFactor":[0.7764705882352941,0.25098039215686274,0.2196078431372549,1],"metallicFactor":0,"roughnessFactor":0.9},"doubleSided":true,"extensions":{"KHR_materials_unlit":{}}},{"pbrMetallicRoughness":{"baseColorFactor":[0.9725490196078431,0.996078431372549,0.27058823529411763,1],"metallicFactor":0,"roughnessFactor":0.9},"doubleSided":true,"extensions":{"KHR_materials_unlit":{}}},{"pbrMetallicRoughness":{"baseColorFactor":[0.2901960784313726,0.7333333333333333,0.24705882352941178,1],"metallicFactor":0,"roughnessFactor":0.9},"doubleSided":true,"extensions":{"KHR_materials_unlit":{}}},{"pbrMetallicRoughness":{"baseColorFactor":[0.7098039215686275,0.9176470588235294,0.5764705882352941,1],"metallicFactor":0,"roughnessFactor":0.9},"doubleSided":true,"extensions":{"KHR_materials_unlit":{}}},{"pbrMetallicRoughness":{"baseColorFactor":[0.3058823529411765,0.20392156862745098,0.42745098039215684,1],"metallicFactor":0,"roughnessFactor":0.9},"doubleSided":true,"extensions":{"KHR_materials_unlit":{}}},{"pbrMetallicRoughness":{"baseColorFactor":[0.6705882352941176,0.8588235294117647,0.12941176470588237,1],"metallicFactor":0,"roughnessFactor":0.9},"doubleSided":true,"extensions":{"KHR_materials_unlit":{}}},{"pbrMetallicRoughness":{"baseColorFactor":[0.29411764705882354,0.7607843137254902,0.4196078431372549,1],"metallicFactor":0,"roughnessFactor":0.9},"doubleSided":true,"extensions":{"KHR_materials_unlit":{}}},{"pbrMetallicRoughness":{"baseColorFactor":[0.1568627450980392,0.5490196078431373,0.8509803921568627,1],"metallicFactor":0,"roughnessFactor":0.9},"doubleSided":true,"extensions":{"KHR_materials_unlit":{}}},{"pbrMetallicRoughness":{"baseColorFactor":[0.8,0.49411764705882355,0.6627450980392157,1],"metallicFactor":0,"roughnessFactor":0.9},"doubleSided":true,"extensions":{"KHR_materials_unlit":{}}}],"meshes":[{"primitives":[{"mode":4,"attributes":{"POSITION":0,"NORMAL":1},"material":0}]},{"primitives":[{"mode":4,"attributes":{"POSITION":2,"NORMAL":3},"material":1}]},{"primitives":[{"mode":4,"attributes":{"POSITION":4,"NORMAL":5},"material":2}]},{"primitives":[{"mode":4,"attributes":{"POSITION":6,"NORMAL":7},"material":3}]},{"primitives":[{"mode":4,"attributes":{"POSITION":8,"NORMAL":9},"material":4}]},{"primitives":[{"mode":4,"attributes":{"POSITION":10,"NORMAL":11},"material":5}]},{"primitives":[{"mode":4,"attributes":{"POSITION":12,"NORMAL":13},"material":6}]},{"primitives":[{"mode":4,"attributes":{"POSITION":14,"NORMAL":15,"TEXCOORD_0":16},"indices":17,"material":7}]},{"primitives":[{"mode":4,"attributes":{"POSITION":18,"NORMAL":19},"material":8}]}],"extensionsUsed":["KHR_materials_unlit"]}