{"asset":{"version":"2.0","generator":"THREE.GLTFExporter"},"scenes":[{"name":"AuxScene","nodes":[17]}],"scene":0,"nodes":[{"matrix":[50,0,0,0,0,50,0,0,0,0,50,0,-300,-250,-65.00000115483999,1],"mesh":0},{"matrix":[50,0,0,0,0,50,0,0,0,0,50,0,-300,-250,-65.00000115483999,1],"mesh":1},{"matrix":[1,0,0,0,0,1,0,0,0,0,1,0,-17,43,-18,1],"mesh":2},{"matrix":[50,0,0,0,0,50,0,0,0,0,50,0,-300,-250,-65.00000115483999,1],"mesh":3},{"matrix":[1,0,0,0,0,1,0,0,0,0,1,0,-197,43,-18,1],"mesh":4},{"matrix":[50,0,0,0,0,50,0,0,0,0,50,0,-300,-250,-65.00000115483999,1],"mesh":5},{"matrix":[50,0,0,0,0,50,0,0,0,0,50,0,-300,-250,-65.00000115483999,1],"mesh":6},{"matrix":[1,0,0,0,0,1,0,0,0,0,1,0,-292,0,-15,1],"mesh":7},{"matrix":[50,0,0,0,0,50,0,0,0,0,50,0,-300,-250,-65.00000115483999,1],"mesh":8},{"matrix":[50,0,0,0,0,50,0,0,0,0,50,0,-300,-250,-65.00000115483999,1],"mesh":9},{"matrix":[1,0,0,0,0,1,0,0,0,0,1,0,-20,-43,-5,1],"mesh":10},{"matrix":[50,0,0,0,0,50,0,0,0,0,50,0,-300,-250,-65.00000115483999,1],"mesh":11},{"matrix":[50,0,0,0,0,50,0,0,0,0,50,0,-300,-250,-65.00000115483999,1],"mesh":12},{"matrix":[1,0,0,0,0,1,0,0,0,0,1,0,77,0,-18,1],"mesh":13},{"matrix":[50,0,0,0,0,50,0,0,0,0,50,0,-300,-250,-65.00000115483999,1],"mesh":14},{"matrix":[50,0,0,0,0,50,0,0,0,0,50,0,-300,-250,-65.00000115483999,1],"mesh":15},{"children":[0,1,2,3,4,5,6,7,8,9,10,11,12,13,14,15]},{"children":[16]}],"bufferViews":[{"buffer":0,"byteOffset":0,"byteLength":1584,"target":34962,"byteStride":12},{"buffer":0,"byteOffset":1584,"byteLength":1584,"target":34962,"byteStride":12},{"buffer":0,"byteOffset":3168,"byteLength":1440,"target":34962,"byteStride":12},{"buffer":0,"byteOffset":4608,"byteLength":1440,"target":34962,"byteStride":12},{"buffer":0,"byteOffset":6048,"byteLength":288,"target":34962,"byteStride":12},{"buffer":0,"byteOffset":6336,"byteLength":288,"target":34962,"byteStride":12},{"buffer":0,"byteOffset":6624,"byteLength":192,"target":34962,"byteStride":8},{"buffer":0,"byteOffset":6816,"byteLength":72,"target":34963},{"buffer":0,"byteOffset":6888,"byteLength":1440,"target":34962,"byteStride":12},{"buffer":0,"byteOffset":8328,"byteLength":1440,"target":34962,"byteStride":12},{"buffer":0,"byteOffset":9768,"byteLength":288,"target":34962,"byteStride":12},{"buffer":0,"byteOffset":10056,"byteLength":288,"target":34962,"byteStride":12},{"buffer":0,"byteOffset":10344,"byteLength":192,"target":34962,"byteStride":8},{"buffer":0,"byteOffset":10536,"byteLength":72,"target":34963},{"buffer":0,"byteOffset":10608,"byteLength":2592,"target":34962,"byteStride":12},{"buffer":0,"byteOffset":13200,"byteLength":2592,"target":34962,"byteStride":12},{"buffer":0,"byteOffset":15792,"byteLength":432,"target":34962,"byteStride":12},{"buffer":0,"byteOffset":16224,"byteLength":432,"target":34962,"byteStride":12},{"buffer":0,"byteOffset":16656,"byteLength":288,"target":34962,"byteStride":12},{"buffer":0,"byteOffset":16944,"byteLength":288,"target":34962,"byteStride":12},{"buffer":0,"byteOffset":17232,"byteLength":192,"target":34962,"byteStride":8},{"buffer":0,"byteOffset":17424,"byteLength":72,"target":34963},{"buffer":0,"byteOffset":17496,"byteLength":8928,"target":34962,"byteStride":12},{"buffer":0,"byteOffset":26424,"byteLength":8928,"target":34962,"byteStride":12},{"buffer":0,"byteOffset":35352,"byteLength":1008,"target":34962,"byteStride":12},{"buffer":0,"byteOffset":36360,"byteLength":1008,"target":34962,"byteStride":12},{"buffer":0,"byteOffset":37368,"byteLength":288,"target":34962,"byteStride":12},{"buffer":0,"byteOffset":37656,"byteLength":288,"target":34962,"byteStride":12},{"buffer":0,"byteOffset":37944,"byteLength":192,"target":34962,"byteStride":8},{"buffer":0,"byteOffset":38136,"byteLength":72,"target":34963},{"buffer":0,"byteOffset":38208,"byteLength":432,"target":34962,"byteStride":12},{"buffer":0,"byteOffset":38640,"byteLength":432,"target":34962,"byteStride":12},{"buffer":0,"byteOffset":39072,"byteLength":1440,"target":34962,"byteStride":12},{"buffer":0,"byteOffset":40512,"byteLength":1440,"target":34962,"byteStride":12},{"buffer":0,"byteOffset":41952,"byteLength":288,"target":34962,"byteStride":12},{"buffer":0,"byteOffset":42240,"byteLength":288,"target":34962,"byteStride":12},{"buffer":0,"byteOffset":42528,"byteLength":192,"target":34962,"byteStride":8},{"buffer":0,"byteOffset":42720,"byteLength":72,"target":34963},{"buffer":0,"byteOffset":42792,"byteLength":1008,"target":34962,"byteStride":12},{"buffer":0,"byteOffset":43800,"byteLength":1008,"target":34962,"byteStride":12},{"buffer":0,"byteOffset":44808,"byteLength":1008,"target":34962,"byteStride":12},{"buffer":0,"byteOffset":45816,"byteLength":1008,"target":34962,"byteStride":12}],"buffers":[{"byteLength":46824,"uri":"data:application/octet-stream;base64,"}],"accessors":[{"bufferView":0,"componentType":5126,"count":132,"max":[7.409999847412109,5.989999771118164,2.700000047683716],"min":[0.30000001192092896,5.75,-0.10000000149011612],"type":"VEC3"},{"bufferView":1,"componentType":5126,"count":132,"max":[1,1,1],"min":[-1,-1,-1],"type":"VEC3"},{"bufferView":2,"componentType":5126,"count":120,"max":[6.1020002365112305,6.761750221252441,2.009999990463257],"min":[5.2170000076293945,5.730000019073486,1.4901200273698123e-9],"type":"VEC3"},{"bufferView":3,"componentType":5126,"count":120,"max":[1,1,1],"min":[-1,-1,-1],"type":"VEC3"},{"bufferView":4,"componentType":5126,"count":24,"max":[22.5,5,52],"min":[-22.5,-5,-52],"type":"VEC3"},{"bufferView":5,"componentType":5126,"count":24,"max":[1,1,1],"min":[-1,-1,-1],"type":"VEC3"},{"bufferView":6,"componentType":5126,"count":24,"max":[1,1],"min":[0,0],"type":"VEC2"},{"bufferView":7,"componentType":5123,"count":36,"max":[23],"min":[0],"type":"SCALAR"},{"bufferView":8,"componentType":5126,"count":120,"max":[2.493000030517578,6.761750221252441,2.009999990463257],"min":[1.6080000400543213,5.730000019073486,1.4901200273698123e-9],"type":"VEC3"},{"bufferView":9,"componentType":5126,"count":120,"max":[1,1,1],"min":[-1,-1,-1],"type":"VEC3"},{"bufferView":10,"componentType":5126,"count":24,"max":[22.5,5,52],"min":[-22.5,-5,-52],"type":"VEC3"},{"bufferView":11,"componentType":5126,"count":24,"max":[1,1,1],"min":[-1,-1,-1],"type":"VEC3"},{"bufferView":12,"componentType":5126,"count":24,"max":[1,1],"min":[0,0],"type":"VEC2"},{"bufferView":13,"componentType":5123,"count":36,"max":[23],"min":[0],"type":"SCALAR"},{"bufferView":14,"componentType":5126,"count":216,"max":[0.30000001192092896,10,2.700000047683716],"min":[-1.7347199604592037e-18,0,-0.10000000149011612],"type":"VEC3"},{"bufferView":15,"componentType":5126,"count":216,"max":[1,1,1],"min":[-1,-1,-1],"type":"VEC3"},{"bufferView":16,"componentType":5126,"count":36,"max":[1.2490899562835693,5.505000114440918,2.009999990463257],"min":[0.28631898760795593,5.121970176696777,1.3877799388343032e-17],"type":"VEC3"},{"bufferView":17,"componentType":5126,"count":36,"max":[0.9397057890892029,0.34200599789619446,1],"min":[-0.9396977424621582,-0.9396929144859314,-1],"type":"VEC3"},{"bufferView":18,"componentType":5126,"count":24,"max":[5,25,52],"min":[-5,-25,-52],"type":"VEC3"},{"bufferView":19,"componentType":5126,"count":24,"max":[1,1,1],"min":[-1,-1,-1],"type":"VEC3"},{"bufferView":20,"componentType":5126,"count":24,"max":[1,1],"min":[0,0],"type":"VEC2"},{"bufferView":21,"componentType":5123,"count":36,"max":[23],"min":[0],"type":"SCALAR"},{"bufferView":22,"componentType":5126,"count":744,"max":[3.592250108718872,4.650000095367432,2.180000066757202],"min":[2.2022500038146973,4.25,1.4901200273698123e-9],"type":"VEC3"},{"bufferView":23,"componentType":5126,"count":744,"max":[1,1,1],"min":[-1,-1,-1],"type":"VEC3"},{"bufferView":24,"componentType":5126,"count":84,"max":[3.799999952316284,4.25,2.700000047683716],"min":[0.30000001192092896,4.010000228881836,-0.10000000149011612],"type":"VEC3"},{"bufferView":25,"componentType":5126,"count":84,"max":[1,1,1],"min":[-1,-1,-1],"type":"VEC3"},{"bufferView":26,"componentType":5126,"count":24,"max":[92,5,65],"min":[-92,-5,-65],"type":"VEC3"},{"bufferView":27,"componentType":5126,"count":24,"max":[1,1,1],"min":[-1,-1,-1],"type":"VEC3"},{"bufferView":28,"componentType":5126,"count":24,"max":[1,1],"min":[0,0],"type":"VEC2"},{"bufferView":29,"componentType":5123,"count":36,"max":[23],"min":[0],"type":"SCALAR"},{"bufferView":30,"componentType":5126,"count":36,"max":[7.650000095367432,4.230000019073486,2.700000047683716],"min":[3.559999942779541,4.03000020980835,2.4600000381469727],"type":"VEC3"},{"bufferView":31,"componentType":5126,"count":36,"max":[1,1,1],"min":[-1,-1,-1],"type":"VEC3"},{"bufferView":32,"componentType":5126,"count":120,"max":[7.670000076293945,5.441999912261963,2.009999990463257],"min":[6.63824987411499,4.557000160217285,1.4901200273698123e-9],"type":"VEC3"},{"bufferView":33,"componentType":5126,"count":120,"max":[1,1,1],"min":[-1,-1,-1],"type":"VEC3"},{"bufferView":34,"componentType":5126,"count":24,"max":[5,22.5,52],"min":[-5,-22.5,-52],"type":"VEC3"},{"bufferView":35,"componentType":5126,"count":24,"max":[1,1,1],"min":[-1,-1,-1],"type":"VEC3"},{"bufferView":36,"componentType":5126,"count":24,"max":[1,1],"min":[0,0],"type":"VEC2"},{"bufferView":37,"componentType":5123,"count":36,"max":[23],"min":[0],"type":"SCALAR"},{"bufferView":38,"componentType":5126,"count":84,"max":[7.650000095367432,9.699999809265137,2.700000047683716],"min":[7.409999847412109,4.25,-0.10000000149011612],"type":"VEC3"},{"bufferView":39,"componentType":5126,"count":84,"max":[1,1,1],"min":[-1,-1,-1],"type":"VEC3"},{"bufferView":40,"componentType":5126,"count":84,"max":[11.699999809265137,4.25,2.700000047683716],"min":[7.409999847412109,4.010000228881836,-0.10000000149011612],"type":"VEC3"},{"bufferView":41,"componentType":5126,"count":84,"max":[1,1,1],"min":[-1,-1,-1],"type":"VEC3"}],"materials":[{"pbrMetallicRoughness":{"baseColorFactor":[0.29411764705882354,0.7607843137254902,0.4196078431372549,1],"metallicFactor":0,"roughnessFactor":0.9},"doubleSided":true,"extensions":{"KHR_materials_unlit":{}}},{"pbrMetallicRoughness":{"baseColorFactor":[0.2549019607843137,0.8705882352941177,0.8941176470588236,1],"metallicFactor":0,"roughnessFactor":0.9},"doubleSided":true,"extensions":{"KHR_materials_unlit":{}}},{"pbrMetallicRoughness":{"baseColorFactor":[0.9568627450980393,0.1568627450980392,0.29411764705882354,1],"metallicFactor":0,"roughnessFactor":0.9},"doubleSided":true,"extensions":{"KHR_materials_unlit":{}}},{"pbrMetallicRoughness":{"baseColorFactor":[0.8,0.49411764705882355,0.6627450980392157,1],"metallicFactor":0,"roughnessFactor":0.9},"doubleSided":true,"extensions":{"KHR_materials_unlit":{}}},{"pbrMetallicRoughness":{"baseColorFactor":[0.1568627450980392,0.5490196078431373,0.8509803921568627,1],"metallicFactor":0,"roughnessFactor":0.9},"doubleSided":true,"extensions":{"KHR_materials_unlit":{}}},{"pbrMetallicRoughness":{"baseColorFactor":[0.7764705882352941,0.25098039215686274,0.2196078431372549,1],"metallicFactor":0,"roughnessFactor":0.9},"doubleSided":true,"extensions":{"KHR_materials_unlit":{}}},{"pbrMetallicRoughness":{"baseColorFactor":[0.0784313725490196,0.6862745098039216,0.09803921568627451,1],"metallicFactor":0,"roughnessFactor":0.9},"doubleSided":true,"extensions":{"KHR_materials_unlit":{}}},{"pbrMetallicRoughness":{"baseColorFactor":[0.41568627450980394,0.9294117647058824,0.7764705882352941,1],"metallicFactor":0,"roughnessFactor":0.9},"doubleSided":true,"extensions":{"KHR_materials_unlit":{}}},{"pbrMetallicRoughness":{"baseColorFactor":[0.8274509803921568,0.6745098039215687,0.6784313725490196,1],"metallicFactor":0,"roughnessFactor":0.9},"doubleSided":true,"extensions":{"KHR_materials_unlit":{}}},{"pbrMetallicRoughness":{"baseColorFactor":[0.8745098039215686,0.6666666666666666,0.8156862745098039,1],"metallicFactor":0,"roughnessFactor":0.9},"doubleSided":true,"extensions":{"KHR_materials_unlit":{}}},{"pbrMetallicRoughness":{"baseColorFactor":[0.7607843137254902,0.9725490196078431,0.792156862745098,1],"metallicFactor":0,"roughnessFactor":0.9},"doubleSided":true,"extensions":{"KHR_materials_unlit":{}}},{"pbrMetallicRoughness":{"baseColorFactor":[0.9450980392156862,0.6352941176470588,0.7647058823529411,1],"metallicFactor":0,"roughnessFactor":0.9},"doubleSided":true,"extensions":{"KHR_materials_unlit":{}}},{"pbrMetallicRoughness":{"baseColorFactor":[0.08627450980392157,0.7686274509803922,0.8392156862745098,1],"metallicFactor":0,"roughnessFactor":0.9},"doubleSided":true,"extensions":{"KHR_materials_unlit":{}}},{"pbrMetallicRoughness":{"baseColorFactor":[0.20392156862745098,0.3607843137254902,0.8509803921568627,1],"metallicFactor":0,"roughnessFactor":0.9},"doubleSided":true,"extensions":{"KHR_materials_unlit":{}}},{"pbrMetallicRoughness":{"baseColorFactor":[0.07058823529411765,0.8392156862745098,0.792156862745098,1],"metallicFactor":0,"roughnessFactor":0.9},"doubleSided":true,"extensions":{"KHR_materials_unlit":{}}},{"pbrMetallicRoughness":{"baseColorFactor":[0.4117647058823529,0.9176470588235294,0.7764705882352941,1],"metallicFactor":0,"roughnessFactor":0.9},"doubleSided":true,"extensions":{"KHR_materials_unlit":{}}}],"meshes":[{"primitives":[{"mode":4,"attributes":{"POSITION":0,"NORMAL":1},"material":0}]},{"primitives":[{"mode":4,"attributes":{"POSITION":2,"NORMAL":3},"material":1}]},{"primitives":[{"mode":4,"attributes":{"POSITION":4,"NORMAL":5,"TEXCOORD_0":6},"indices":7,"material":2}]},{"primitives":[{"mode":4,"attributes":{"POSITION":8,"NORMAL":9},"material":3}]},{"primitives":[{"mode":4,"attributes":{"POSITION":10,"NORMAL":11,"TEXCOORD_0":12},"indices":13,"material":4}]},{"primitives":[{"mode":4,"attributes":{"POSITION":14,"NORMAL":15},"material":5}]},{"primitives":[{"mode":4,"attributes":{"POSITION":16,"NORMAL":17},"material":6}]},{"primitives":[{"mode":4,"attributes":{"POSITION":18,"NORMAL":19,"TEXCOORD_0":20},"indices":21,"material":7}]},{"primitives":[{"mode":4,"attributes":{"POSITION":22,"NORMAL":23},"material":8}]},{"primitives":[{"mode":4,"attributes":{"POSITION":24,"NORMAL":25},"material":9}]},{"primitives":[{"mode":4,"attributes":{"POSITION":26,"NORMAL":27,"TEXCOORD_0":28},"indices":29,"material":10}]},{"primitives":[{"mode":4,"attributes":{"POSITION":30,"NORMAL":31},"material":11}]},{"primitives":[{"mode":4,"attributes":{"POSITION":32,"NORMAL":33},"material":12}]},{"primitives":[{"mode":4,"attributes":{"POSITION":34,"NORMAL":35,"TEXCOORD_0":36},"indices":37,"material":13}]},{"primitives":[{"mode":4,"attributes":{"POSITION":38,"NORMAL":39},"material":14}]},{"primitives":[{"mode":4,"attributes":{"POSITION":40,"NORMAL":41},"material":15}]}],"extensionsUsed":["KHR_materials_unlit"]}