{"asset":{"version":"2.0","generator":"THREE.GLTFExporter"},"scenes":[{"name":"AuxScene","nodes":[11]}],"scene":0,"nodes":[{"matrix":[50,0,0,0,0,50,0,0,0,0,50,0,-300,-250,-65.00000115483999,1],"mesh":0},{"matrix":[50,0,0,0,0,50,0,0,0,0,50,0,-300,-250,-65.00000115483999,1],"mesh":1},{"matrix":[50,0,0,0,0,50,0,0,0,0,50,0,-300,-250,-65.00000115483999,1],"mesh":2},{"matrix":[50,0,0,0,0,50,0,0,0,0,50,0,-300,-250,-65.00000115483999,1],"mesh":3},{"matrix":[1,0,0,0,0,1,0,0,0,0,1,0,77,0,-18,1],"mesh":4},{"matrix":[50,0,0,0,0,50,0,0,0,0,50,0,-300,-250,-65.00000115483999,1],"mesh":5},{"matrix":[50,0,0,0,0,50,0,0,0,0,50,0,-300,-250,-65.00000115483999,1],"mesh":6},{"matrix":[50,0,0,0,0,50,0,0,0,0,50,0,-300,-250,-65.00000115483999,1],"mesh":7},{"matrix":[50,0,0,0,0,50,0,0,0,0,50,0,-300,-250,-65.00000115483999,1],"mesh":8},{"matrix":[50,0,0,0,0,50,0,0,0,0,50,0,-300,-250,-65.00000115483999,1],"mesh":9},{"children":[0,1,2,3,4,5,6,7,8,9]},{"children":[10]}],"bufferViews":[{"buffer":0,"byteOffset":0,"byteLength":2592,"target":34962,"byteStride":12},{"buffer":0,"byteOffset":2592,"byteLength":2592,"target":34962,"byteStride":12},{"buffer":0,"byteOffset":5184,"byteLength":38664,"target":34962,"byteStride":12},{"buffer":0,"byteOffset":43848,"byteLength":38664,"target":34962,"byteStride":12},{"buffer":0,"byteOffset":82512,"byteLength":1008,"target":34962,"byteStride":12},{"buffer":0,"byteOffset":83520,"byteLength":1008,"target":34962,"byteStride":12},{"buffer":0,"byteOffset":84528,"byteLength":1440,"target":34962,"byteStride":12},{"buffer":0,"byteOffset":85968,"byteLength":1440,"target":34962,"byteStride":12},{"buffer":0,"byteOffset":87408,"byteLength":288,"target":34962,"byteStride":12},{"buffer":0,"byteOffset":87696,"byteLength":288,"target":34962,"byteStride":12},{"buffer":0,"byteOffset":87984,"byteLength":192,"target":34962,"byteStride":8},{"buffer":0,"byteOffset":88176,"byteLength":72,"target":34963},{"buffer":0,"byteOffset":88248,"byteLength":1872,"target":34962,"byteStride":12},{"buffer":0,"byteOffset":90120,"byteLength":1872,"target":34962,"byteStride":12},{"buffer":0,"byteOffset":91992,"byteLength":4032,"target":34962,"byteStride":12},{"buffer":0,"byteOffset":96024,"byteLength":4032,"target":34962,"byteStride":12},{"buffer":0,"byteOffset":100056,"byteLength":4032,"target":34962,"byteStride":12},{"buffer":0,"byteOffset":104088,"byteLength":4032,"target":34962,"byteStride":12},{"buffer":0,"byteOffset":108120,"byteLength":34272,"target":34962,"byteStride":12},{"buffer":0,"byteOffset":142392,"byteLength":34272,"target":34962,"byteStride":12},{"buffer":0,"byteOffset":176664,"byteLength":1008,"target":34962,"byteStride":12},{"buffer":0,"byteOffset":177672,"byteLength":1008,"target":34962,"byteStride":12}],"buffers":[{"byteLength":178680,"uri":"data:application/octet-stream;base64,"}],"accessors":[{"bufferView":0,"componentType":5126,"count":216,"max":[12,10,2.700000047683716],"min":[0,9.699999809265137,-0.10000000149011612],"type":"VEC3"},{"bufferView":1,"componentType":5126,"count":216,"max":[1,1,1],"min":[-1,-1,-1],"type":"VEC3"},{"bufferView":2,"componentType":5126,"count":3222,"max":[11.464500427246094,7.915319919586182,0.6000000238418579],"min":[9.314459800720215,6.255320072174072,1.4901200273698123e-9],"type":"VEC3"},{"bufferView":3,"componentType":5126,"count":3222,"max":[1,1,1],"min":[-1,-1,-1],"type":"VEC3"},{"bufferView":4,"componentType":5126,"count":84,"max":[7.650000095367432,9.699999809265137,2.700000047683716],"min":[7.409999847412109,4.25,-0.10000000149011612],"type":"VEC3"},{"bufferView":5,"componentType":5126,"count":84,"max":[1,1,1],"min":[-1,-1,-1],"type":"VEC3"},{"bufferView":6,"componentType":5126,"count":120,"max":[7.670000076293945,5.441999912261963,2.009999990463257],"min":[6.63824987411499,4.557000160217285,1.4901200273698123e-9],"type":"VEC3"},{"bufferView":7,"componentType":5126,"count":120,"max":[1,1,1],"min":[-1,-1,-1],"type":"VEC3"},{"bufferView":8,"componentType":5126,"count":24,"max":[5,22.5,52],"min":[-5,-22.5,-52],"type":"VEC3"},{"bufferView":9,"componentType":5126,"count":24,"max":[1,1,1],"min":[-1,-1,-1],"type":"VEC3"},{"bufferView":10,"componentType":5126,"count":24,"max":[1,1],"min":[0,0],"type":"VEC2"},{"bufferView":11,"componentType":5123,"count":36,"max":[23],"min":[0],"type":"SCALAR"},{"bufferView":12,"componentType":5126,"count":156,"max":[12,10,2.700000047683716],"min":[11.699999809265137,0,-0.10000000149011612],"type":"VEC3"},{"bufferView":13,"componentType":5126,"count":156,"max":[1,1,1],"min":[-1,-1,-1],"type":"VEC3"},{"bufferView":14,"componentType":5126,"count":336,"max":[11.880000114440918,8.501999855041504,1.899999976158142],"min":[11.805000305175781,6.501999855041504,0.699999988079071],"type":"VEC3"},{"bufferView":15,"componentType":5126,"count":336,"max":[1,1,1],"min":[-1,-1,-1],"type":"VEC3"},{"bufferView":16,"componentType":5126,"count":336,"max":[10.795000076293945,9.880000114440918,1.899999976158142],"min":[8.795000076293945,9.805000305175781,0.699999988079071],"type":"VEC3"},{"bufferView":17,"componentType":5126,"count":336,"max":[1,1,1],"min":[-1,-1,-1],"type":"VEC3"},{"bufferView":18,"componentType":5126,"count":2856,"max":[11.299799919128418,4.945000171661377,2.2251200675964355],"min":[8.779820442199707,4.25,0],"type":"VEC3"},{"bufferView":19,"componentType":5126,"count":2856,"max":[1,1,1],"min":[-1,-1,-1],"type":"VEC3"},{"bufferView":20,"componentType":5126,"count":84,"max":[11.699999809265137,4.25,2.700000047683716],"min":[7.409999847412109,4.010000228881836,-0.10000000149011612],"type":"VEC3"},{"bufferView":21,"componentType":5126,"count":84,"max":[1,1,1],"min":[-1,-1,-1],"type":"VEC3"}],"materials":[{"pbrMetallicRoughness":{"baseColorFactor":[0.7098039215686275,0.9176470588235294,0.5764705882352941,1],"metallicFactor":0,"roughnessFactor":0.9},"doubleSided":true,"extensions":{"KHR_materials_unlit":{}}},{"pbrMetallicRoughness":{"baseColorFactor":[0.5019607843137255,0.8431372549019608,0.6196078431372549,1],"metallicFactor":0,"roughnessFactor":0.9},"doubleSided":true,"extensions":{"KHR_materials_unlit":{}}},{"pbrMetallicRoughness":{"baseColorFactor":[0.07058823529411765,0.8392156862745098,0.792156862745098,1],"metallicFactor":0,"roughnessFactor":0.9},"doubleSided":true,"extensions":{"KHR_materials_unlit":{}}},{"pbrMetallicRoughness":{"baseColorFactor":[0.08627450980392157,0.7686274509803922,0.8392156862745098,1],"metallicFactor":0,"roughnessFactor":0.9},"doubleSided":true,"extensions":{"KHR_materials_unlit":{}}},{"pbrMetallicRoughness":{"baseColorFactor":[0.20392156862745098,0.3607843137254902,0.8509803921568627,1],"metallicFactor":0,"roughnessFactor":0.9},"doubleSided":true,"extensions":{"KHR_materials_unlit":{}}},{"pbrMetallicRoughness":{"baseColorFactor":[0.023529411764705882,0.5568627450980392,0.13725490196078433,1],"metallicFactor":0,"roughnessFactor":0.9},"doubleSided":true,"extensions":{"KHR_materials_unlit":{}}},{"pbrMetallicRoughness":{"baseColorFactor":[0.058823529411764705,0.1411764705882353,0.043137254901960784,1],"metallicFactor":0,"roughnessFactor":0.9},"doubleSided":true,"extensions":{"KHR_materials_unlit":{}}},{"pbrMetallicRoughness":{"baseColorFactor":[0.6431372549019608,0.12156862745098039,0.2980392156862745,1],"metallicFactor":0,"roughnessFactor":0.9},"doubleSided":true,"extensions":{"KHR_materials_unlit":{}}},{"pbrMetallicRoughness":{"baseColorFactor":[0.611764705882353,0.8549019607843137,0.8431372549019608,1],"metallicFactor":0,"roughnessFactor":0.9},"doubleSided":true,"extensions":{"KHR_materials_unlit":{}}},{"pbrMetallicRoughness":{"baseColorFactor":[0.4117647058823529,0.9176470588235294,0.7764705882352941,1],"metallicFactor":0,"roughnessFactor":0.9},"doubleSided":true,"extensions":{"KHR_materials_unlit":{}}}],"meshes":[{"primitives":[{"mode":4,"attributes":{"POSITION":0,"NORMAL":1},"material":0}]},{"primitives":[{"mode":4,"attributes":{"POSITION":2,"NORMAL":3},"material":1}]},{"primitives":[{"mode":4,"attributes":{"POSITION":4,"NORMAL":5},"material":2}]},{"primitives":[{"mode":4,"attributes":{"POSITION":6,"NORMAL":7},"material":3}]},{"primitives":[{"mode":4,"attributes":{"POSITION":8,"NORMAL":9,"TEXCOORD_0":10},"indices":11,"material":4}]},{"primitives":[{"mode":4,"attributes":{"POSITION":12,"NORMAL":13},"material":5}]},{"primitives":[{"mode":4,"attributes":{"POSITION":14,"NORMAL":15},"material":6}]},{"primitives":[{"mode":4,"attributes":{"POSITION":16,"NORMAL":17},"material":7}]},{"primitives":[{"mode":4,"attributes":{"POSITION":18,"NORMAL":19},"material":8}]},{"primitives":[{"mode":4,"attributes":{"POSITION":20,"NORMAL":21},"material":9}]}],"extensionsUsed":["KHR_materials_unlit"]}