{"asset":{"version":"2.0","generator":"THREE.GLTFExporter"},"scenes":[{"name":"AuxScene","nodes":[21]}],"scene":0,"nodes":[{"matrix":[50,0,0,0,0,50,0,0,0,0,50,0,-300,-250,-65.00000115483999,1],"mesh":0},{"matrix":[50,0,0,0,0,50,0,0,0,0,50,0,-300,-250,-65.00000115483999,1],"mesh":1},{"matrix":[50,0,0,0,0,50,0,0,0,0,50,0,-300,-250,-65.00000115483999,1],"mesh":2},{"matrix":[50,0,0,0,0,50,0,0,0,0,50,0,-300,-250,-65.00000115483999,1],"mesh":3},{"matrix":[50,0,0,0,0,50,0,0,0,0,50,0,-300,-250,-65.00000115483999,1],"mesh":4},{"matrix":[50,0,0,0,0,50,0,0,0,0,50,0,-300,-250,-65.00000115483999,1],"mesh":5},{"matrix":[50,0,0,0,0,50,0,0,0,0,50,0,-300,-250,-65.00000115483999,1],"mesh":6},{"matrix":[50,0,0,0,0,50,0,0,0,0,50,0,-300,-250,-65.00000115483999,1],"mesh":7},{"matrix":[50,0,0,0,0,50,0,0,0,0,50,0,-300,-250,-65.00000115483999,1],"mesh":8},{"matrix":[50,0,0,0,0,50,0,0,0,0,50,0,-300,-250,-65.00000115483999,1],"mesh":9},{"matrix":[50,0,0,0,0,50,0,0,0,0,50,0,-300,-250,-65.00000115483999,1],"mesh":10},{"matrix":[50,0,0,0,0,50,0,0,0,0,50,0,-300,-250,-65.00000115483999,1],"mesh":11},{"matrix":[50,0,0,0,0,50,0,0,0,0,50,0,-300,-250,-65.00000115483999,1],"mesh":12},{"matrix":[50,0,0,0,0,50,0,0,0,0,50,0,-300,-250,-65.00000115483999,1],"mesh":13},{"matrix":[50,0,0,0,0,50,0,0,0,0,50,0,-300,-250,-65.00000115483999,1],"mesh":14},{"matrix":[50,0,0,0,0,50,0,0,0,0,50,0,-300,-250,-65.00000115483999,1],"mesh":15},{"matrix":[50,0,0,0,0,50,0,0,0,0,50,0,-300,-250,-65.00000115483999,1],"mesh":16},{"matrix":[50,0,0,0,0,50,0,0,0,0,50,0,-300,-250,-65.00000115483999,1],"mesh":17},{"matrix":[1,0,0,0,0,1,0,0,0,0,1,0,-17,43,-18,1],"mesh":18},{"matrix":[50,0,0,0,0,50,0,0,0,0,50,0,-300,-250,-65.00000115483999,1],"mesh":19},{"children":[0,1,2,3,4,5,6,7,8,9,10,11,12,13,14,15,16,17,18,19]},{"children":[20]}],"bufferViews":[{"buffer":0,"byteOffset":0,"byteLength":432,"target":34962,"byteStride":12},{"buffer":0,"byteOffset":432,"byteLength":432,"target":34962,"byteStride":12},{"buffer":0,"byteOffset":864,"byteLength":57708,"target":34962,"byteStride":12},{"buffer":0,"byteOffset":58572,"byteLength":57708,"target":34962,"byteStride":12},{"buffer":0,"byteOffset":116280,"byteLength":9072,"target":34962,"byteStride":12},{"buffer":0,"byteOffset":125352,"byteLength":9072,"target":34962,"byteStride":12},{"buffer":0,"byteOffset":134424,"byteLength":50688,"target":34962,"byteStride":12},{"buffer":0,"byteOffset":185112,"byteLength":50688,"target":34962,"byteStride":12},{"buffer":0,"byteOffset":235800,"byteLength":11808,"target":34962,"byteStride":12},{"buffer":0,"byteOffset":247608,"byteLength":11808,"target":34962,"byteStride":12},{"buffer":0,"byteOffset":259416,"byteLength":90036,"target":34962,"byteStride":12},{"buffer":0,"byteOffset":349452,"byteLength":90036,"target":34962,"byteStride":12},{"buffer":0,"byteOffset":439488,"byteLength":2592,"target":34962,"byteStride":12},{"buffer":0,"byteOffset":442080,"byteLength":2592,"target":34962,"byteStride":12},{"buffer":0,"byteOffset":444672,"byteLength":1008,"target":34962,"byteStride":12},{"buffer":0,"byteOffset":445680,"byteLength":1008,"target":34962,"byteStride":12},{"buffer":0,"byteOffset":446688,"byteLength":10080,"target":34962,"byteStride":12},{"buffer":0,"byteOffset":456768,"byteLength":10080,"target":34962,"byteStride":12},{"buffer":0,"byteOffset":466848,"byteLength":4032,"target":34962,"byteStride":12},{"buffer":0,"byteOffset":470880,"byteLength":4032,"target":34962,"byteStride":12},{"buffer":0,"byteOffset":474912,"byteLength":17208,"target":34962,"byteStride":12},{"buffer":0,"byteOffset":492120,"byteLength":17208,"target":34962,"byteStride":12},{"buffer":0,"byteOffset":509328,"byteLength":126288,"target":34962,"byteStride":12},{"buffer":0,"byteOffset":635616,"byteLength":126288,"target":34962,"byteStride":12},{"buffer":0,"byteOffset":761904,"byteLength":45792,"target":34962,"byteStride":12},{"buffer":0,"byteOffset":807696,"byteLength":45792,"target":34962,"byteStride":12},{"buffer":0,"byteOffset":853488,"byteLength":17208,"target":34962,"byteStride":12},{"buffer":0,"byteOffset":870696,"byteLength":17208,"target":34962,"byteStride":12},{"buffer":0,"byteOffset":887904,"byteLength":35136,"target":34962,"byteStride":12},{"buffer":0,"byteOffset":923040,"byteLength":35136,"target":34962,"byteStride":12},{"buffer":0,"byteOffset":958176,"byteLength":28656,"target":34962,"byteStride":12},{"buffer":0,"byteOffset":986832,"byteLength":28656,"target":34962,"byteStride":12},{"buffer":0,"byteOffset":1015488,"byteLength":1440,"target":34962,"byteStride":12},{"buffer":0,"byteOffset":1016928,"byteLength":1440,"target":34962,"byteStride":12},{"buffer":0,"byteOffset":1018368,"byteLength":1584,"target":34962,"byteStride":12},{"buffer":0,"byteOffset":1019952,"byteLength":1584,"target":34962,"byteStride":12},{"buffer":0,"byteOffset":1021536,"byteLength":288,"target":34962,"byteStride":12},{"buffer":0,"byteOffset":1021824,"byteLength":288,"target":34962,"byteStride":12},{"buffer":0,"byteOffset":1022112,"byteLength":192,"target":34962,"byteStride":8},{"buffer":0,"byteOffset":1022304,"byteLength":72,"target":34963},{"buffer":0,"byteOffset":1022376,"byteLength":79992,"target":34962,"byteStride":12},{"buffer":0,"byteOffset":1102368,"byteLength":79992,"target":34962,"byteStride":12}],"buffers":[{"byteLength":1182360,"uri":"data:application/octet-stream;base64,"}],"accessors":[{"bufferView":0,"componentType":5126,"count":36,"max":[4.039999961853027,9.699999809265137,2.700000047683716],"min":[3.799999952316284,5.989999771118164,-0.10000000149011612],"type":"VEC3"},{"bufferView":1,"componentType":5126,"count":36,"max":[1,1,1],"min":[-1,-1,-1],"type":"VEC3"},{"bufferView":2,"componentType":5126,"count":4809,"max":[5.590350151062012,9.6899995803833,0.44992199540138245],"min":[4.050000190734863,8.149649620056152,-0.008999999612569809],"type":"VEC3"},{"bufferView":3,"componentType":5126,"count":4809,"max":[1,0.9999995231628418,1],"min":[-0.9999995231628418,-1,-1],"type":"VEC3"},{"bufferView":4,"componentType":5126,"count":756,"max":[5.594550132751465,9.699999809265137,0.41999998688697815],"min":[4.039999961853027,8.1454496383667,-0.10000000149011612],"type":"VEC3"},{"bufferView":5,"componentType":5126,"count":756,"max":[0.9994149208068848,1,1],"min":[-1,-0.9994149208068848,-1],"type":"VEC3"},{"bufferView":6,"componentType":5126,"count":4224,"max":[4.179999828338623,8.996410369873047,0.7250000238418579],"min":[4.050000190734863,8.496410369873047,0.6639999747276306],"type":"VEC3"},{"bufferView":7,"componentType":5126,"count":4224,"max":[1,1,1],"min":[-1,-1,-1],"type":"VEC3"},{"bufferView":8,"componentType":5126,"count":984,"max":[4.150000095367432,7.604909896850586,0.7250000238418579],"min":[4.050000190734863,7.4828901290893555,0.550000011920929],"type":"VEC3"},{"bufferView":9,"componentType":5126,"count":984,"max":[1,1,1],"min":[-1,-1,-1],"type":"VEC3"},{"bufferView":10,"componentType":5126,"count":7503,"max":[4.699999809265137,7.388130187988281,0.8600000143051147],"min":[4.050000190734863,6.960219860076904,0],"type":"VEC3"},{"bufferView":11,"componentType":5126,"count":7503,"max":[0.9957191944122314,1,1],"min":[-1,-1,-1],"type":"VEC3"},{"bufferView":12,"componentType":5126,"count":216,"max":[12,10,2.700000047683716],"min":[0,9.699999809265137,-0.10000000149011612],"type":"VEC3"},{"bufferView":13,"componentType":5126,"count":216,"max":[1,1,1],"min":[-1,-1,-1],"type":"VEC3"},{"bufferView":14,"componentType":5126,"count":84,"max":[7.650000095367432,9.699999809265137,2.700000047683716],"min":[7.409999847412109,4.25,-0.10000000149011612],"type":"VEC3"},{"bufferView":15,"componentType":5126,"count":84,"max":[1,1,1],"min":[-1,-1,-1],"type":"VEC3"},{"bufferView":16,"componentType":5126,"count":840,"max":[7.400000095367432,9.328350067138672,2],"min":[7.254000186920166,7.828350067138672,1.2999999523162842],"type":"VEC3"},{"bufferView":17,"componentType":5126,"count":840,"max":[1,1,1],"min":[-1,-1,-1],"type":"VEC3"},{"bufferView":18,"componentType":5126,"count":336,"max":[6.659999847412109,9.880000114440918,1.899999976158142],"min":[4.659999847412109,9.805000305175781,0.699999988079071],"type":"VEC3"},{"bufferView":19,"componentType":5126,"count":336,"max":[1,1,1],"min":[-1,-1,-1],"type":"VEC3"},{"bufferView":20,"componentType":5126,"count":1434,"max":[7.363920211791992,8.90785026550293,1.010759949684143],"min":[7.174190044403076,8.846360206604004,0.8500000238418579],"type":"VEC3"},{"bufferView":21,"componentType":5126,"count":1434,"max":[1,1,0.9849612712860107],"min":[-0.9822172522544861,-1,-1],"type":"VEC3"},{"bufferView":22,"componentType":5126,"count":10524,"max":[7.400000095367432,9.353360176086426,0.8500000238418579],"min":[6.849999904632568,7.8033599853515625,0.4447929859161377],"type":"VEC3"},{"bufferView":23,"componentType":5126,"count":10524,"max":[1,1,1],"min":[-1,-1,-1],"type":"VEC3"},{"bufferView":24,"componentType":5126,"count":3816,"max":[7.400000095367432,8.640859603881836,1.0603300333023071],"min":[7.32450008392334,8.515859603881836,0.9815000295639038],"type":"VEC3"},{"bufferView":25,"componentType":5126,"count":3816,"max":[1,1,1],"min":[-1,-1,-1],"type":"VEC3"},{"bufferView":26,"componentType":5126,"count":1434,"max":[7.363920211791992,8.317850112915039,1.010759949684143],"min":[7.174190044403076,8.256360054016113,0.8500000238418579],"type":"VEC3"},{"bufferView":27,"componentType":5126,"count":1434,"max":[1,1,0.9850721955299377],"min":[-0.9822172522544861,-1,-1],"type":"VEC3"},{"bufferView":28,"componentType":5126,"count":2928,"max":[7.400000095367432,6.900000095367432,1.9249999523162842],"min":[6.5,6,0],"type":"VEC3"},{"bufferView":29,"componentType":5126,"count":2928,"max":[1,1,1],"min":[-1,-1,-1],"type":"VEC3"},{"bufferView":30,"componentType":5126,"count":2388,"max":[7.400000095367432,6.900000095367432,0.12960700690746307],"min":[6.5,6,-0.004999999888241291],"type":"VEC3"},{"bufferView":31,"componentType":5126,"count":2388,"max":[0.9728308320045471,0.9728308320045471,1],"min":[-0.9728308320045471,-0.9728308320045471,-1],"type":"VEC3"},{"bufferView":32,"componentType":5126,"count":120,"max":[6.1020002365112305,6.761750221252441,2.009999990463257],"min":[5.2170000076293945,5.730000019073486,1.4901200273698123e-9],"type":"VEC3"},{"bufferView":33,"componentType":5126,"count":120,"max":[1,1,1],"min":[-1,-1,-1],"type":"VEC3"},{"bufferView":34,"componentType":5126,"count":132,"max":[7.409999847412109,5.989999771118164,2.700000047683716],"min":[0.30000001192092896,5.75,-0.10000000149011612],"type":"VEC3"},{"bufferView":35,"componentType":5126,"count":132,"max":[1,1,1],"min":[-1,-1,-1],"type":"VEC3"},{"bufferView":36,"componentType":5126,"count":24,"max":[22.5,5,52],"min":[-22.5,-5,-52],"type":"VEC3"},{"bufferView":37,"componentType":5126,"count":24,"max":[1,1,1],"min":[-1,-1,-1],"type":"VEC3"},{"bufferView":38,"componentType":5126,"count":24,"max":[1,1],"min":[0,0],"type":"VEC2"},{"bufferView":39,"componentType":5123,"count":36,"max":[23],"min":[0],"type":"SCALAR"},{"bufferView":40,"componentType":5126,"count":6666,"max":[7.400000095367432,6.563240051269531,1.8012700080871582],"min":[7.230199813842773,6.238860130310059,0.744238018989563],"type":"VEC3"},{"bufferView":41,"componentType":5126,"count":6666,"max":[1,1,1],"min":[-1,-1,-1],"type":"VEC3"}],"materials":[{"pbrMetallicRoughness":{"baseColorFactor":[0.2901960784313726,0.7333333333333333,0.24705882352941178,1],"metallicFactor":0,"roughnessFactor":0.9},"doubleSided":true,"extensions":{"KHR_materials_unlit":{}}},{"pbrMetallicRoughness":{"baseColorFactor":[0.1843137254901961,0.6431372549019608,0.8705882352941177,1],"metallicFactor":0,"roughnessFactor":0.9},"doubleSided":true,"extensions":{"KHR_materials_unlit":{}}},{"pbrMetallicRoughness":{"baseColorFactor":[0.30980392156862746,0.8,0.3254901960784314,1],"metallicFactor":0,"roughnessFactor":0.9},"doubleSided":true,"extensions":{"KHR_materials_unlit":{}}},{"pbrMetallicRoughness":{"baseColorFactor":[0.06274509803921569,0.5568627450980392,0.7529411764705882,1],"metallicFactor":0,"roughnessFactor":0.9},"doubleSided":true,"extensions":{"KHR_materials_unlit":{}}},{"pbrMetallicRoughness":{"baseColorFactor":[0.9254901960784314,0.9568627450980393,0.403921568627451,1],"metallicFactor":0,"roughnessFactor":0.9},"doubleSided":true,"extensions":{"KHR_materials_unlit":{}}},{"pbrMetallicRoughness":{"baseColorFactor":[0.3803921568627451,0.5490196078431373,0.08627450980392157,1],"metallicFactor":0,"roughnessFactor":0.9},"doubleSided":true,"extensions":{"KHR_materials_unlit":{}}},{"pbrMetallicRoughness":{"baseColorFactor":[0.7098039215686275,0.9176470588235294,0.5764705882352941,1],"metallicFactor":0,"roughnessFactor":0.9},"doubleSided":true,"extensions":{"KHR_materials_unlit":{}}},{"pbrMetallicRoughness":{"baseColorFactor":[0.07058823529411765,0.8392156862745098,0.792156862745098,1],"metallicFactor":0,"roughnessFactor":0.9},"doubleSided":true,"extensions":{"KHR_materials_unlit":{}}},{"pbrMetallicRoughness":{"baseColorFactor":[0.4823529411764706,0.1843137254901961,0.6509803921568628,1],"metallicFactor":0,"roughnessFactor":0.9},"doubleSided":true,"extensions":{"KHR_materials_unlit":{}}},{"pbrMetallicRoughness":{"baseColorFactor":[0.4588235294117647,0.5215686274509804,0.5215686274509804,1],"metallicFactor":0,"roughnessFactor":0.9},"doubleSided":true,"extensions":{"KHR_materials_unlit":{}}},{"pbrMetallicRoughness":{"baseColorFactor":[0.3568627450980392,0.17254901960784313,0.6470588235294118,1],"metallicFactor":0,"roughnessFactor":0.9},"doubleSided":true,"extensions":{"KHR_materials_unlit":{}}},{"pbrMetallicRoughness":{"baseColorFactor":[0.11764705882352941,0.4392156862745098,0.40784313725490196,1],"metallicFactor":0,"roughnessFactor":0.9},"doubleSided":true,"extensions":{"KHR_materials_unlit":{}}},{"pbrMetallicRoughness":{"baseColorFactor":[0.4392156862745098,0.33725490196078434,0.7098039215686275,1],"metallicFactor":0,"roughnessFactor":0.9},"doubleSided":true,"extensions":{"KHR_materials_unlit":{}}},{"pbrMetallicRoughness":{"baseColorFactor":[0.8509803921568627,0.42745098039215684,0.41568627450980394,1],"metallicFactor":0,"roughnessFactor":0.9},"doubleSided":true,"extensions":{"KHR_materials_unlit":{}}},{"pbrMetallicRoughness":{"baseColorFactor":[0.6274509803921569,0.8745098039215686,0.7490196078431373,1],"metallicFactor":0,"roughnessFactor":0.9},"doubleSided":true,"extensions":{"KHR_materials_unlit":{}}},{"pbrMetallicRoughness":{"baseColorFactor":[0.09411764705882353,0.4823529411764706,0.09411764705882353,1],"metallicFactor":0,"roughnessFactor":0.9},"doubleSided":true,"extensions":{"KHR_materials_unlit":{}}},{"pbrMetallicRoughness":{"baseColorFactor":[0.2549019607843137,0.8705882352941177,0.8941176470588236,1],"metallicFactor":0,"roughnessFactor":0.9},"doubleSided":true,"extensions":{"KHR_materials_unlit":{}}},{"pbrMetallicRoughness":{"baseColorFactor":[0.29411764705882354,0.7607843137254902,0.4196078431372549,1],"metallicFactor":0,"roughnessFactor":0.9},"doubleSided":true,"extensions":{"KHR_materials_unlit":{}}},{"pbrMetallicRoughness":{"baseColorFactor":[0.9568627450980393,0.1568627450980392,0.29411764705882354,1],"metallicFactor":0,"roughnessFactor":0.9},"doubleSided":true,"extensions":{"KHR_materials_unlit":{}}},{"pbrMetallicRoughness":{"baseColorFactor":[0.7647058823529411,0.9607843137254902,0.5843137254901961,1],"metallicFactor":0,"roughnessFactor":0.9},"doubleSided":true,"extensions":{"KHR_materials_unlit":{}}}],"meshes":[{"primitives":[{"mode":4,"attributes":{"POSITION":0,"NORMAL":1},"material":0}]},{"primitives":[{"mode":4,"attributes":{"POSITION":2,"NORMAL":3},"material":1}]},{"primitives":[{"mode":4,"attributes":{"POSITION":4,"NORMAL":5},"material":2}]},{"primitives":[{"mode":4,"attributes":{"POSITION":6,"NORMAL":7},"material":3}]},{"primitives":[{"mode":4,"attributes":{"POSITION":8,"NORMAL":9},"material":4}]},{"primitives":[{"mode":4,"attributes":{"POSITION":10,"NORMAL":11},"material":5}]},{"primitives":[{"mode":4,"attributes":{"POSITION":12,"NORMAL":13},"material":6}]},{"primitives":[{"mode":4,"attributes":{"POSITION":14,"NORMAL":15},"material":7}]},{"primitives":[{"mode":4,"attributes":{"POSITION":16,"NORMAL":17},"material":8}]},{"primitives":[{"mode":4,"attributes":{"POSITION":18,"NORMAL":19},"material":9}]},{"primitives":[{"mode":4,"attributes":{"POSITION":20,"NORMAL":21},"material":10}]},{"primitives":[{"mode":4,"attributes":{"POSITION":22,"NORMAL":23},"material":11}]},{"primitives":[{"mode":4,"attributes":{"POSITION":24,"NORMAL":25},"material":12}]},{"primitives":[{"mode":4,"attributes":{"POSITION":26,"NORMAL":27},"material":13}]},{"primitives":[{"mode":4,"attributes":{"POSITION":28,"NORMAL":29},"material":14}]},{"primitives":[{"mode":4,"attributes":{"POSITION":30,"NORMAL":31},"material":15}]},{"primitives":[{"mode":4,"attributes":{"POSITION":32,"NORMAL":33},"material":16}]},{"primitives":[{"mode":4,"attributes":{"POSITION":34,"NORMAL":35},"material":17}]},{"primitives":[{"mode":4,"attributes":{"POSITION":36,"NORMAL":37,"TEXCOORD_0":38},"indices":39,"material":18}]},{"primitives":[{"mode":4,"attributes":{"POSITION":40,"NORMAL":41},"material":19}]}],"extensionsUsed":["KHR_materials_unlit"]}